<svg xmlns="http://www.w3.org/2000/svg" xmlns:xlink="http://www.w3.org/1999/xlink" width="128" height="128"><defs><linearGradient id="c" gradientUnits="userSpaceOnUse" x1="82" y1="225.608" x2="64" y2="196" gradientTransform="translate(0 -172)"><stop offset="0" stop-color="#e5a50a"/><stop offset="1" stop-color="#f6d32d"/></linearGradient><linearGradient id="q" gradientUnits="userSpaceOnUse" x1="45.999" y1="246.969" x2="64" y2="276" gradientTransform="translate(0 -172)"><stop offset="0" stop-color="#613583"/><stop offset="1" stop-color="#a347ba"/></linearGradient><linearGradient id="t" gradientUnits="userSpaceOnUse" x1="82.001" y1="246.393" x2="100" y2="216" gradientTransform="translate(0 -172)"><stop offset="0" stop-color="#c64600"/><stop offset="1" stop-color="#ff7800"/></linearGradient><linearGradient id="u" gradientUnits="userSpaceOnUse" x1="63.999" y1="215.215" x2="28" y2="215.216" gradientTransform="translate(0 -172)"><stop offset="0" stop-color="#26a269"/><stop offset="1" stop-color="#33d17a"/></linearGradient><linearGradient id="v" gradientUnits="userSpaceOnUse" x1="64.499" y1="257.074" x2="100" y2="258" gradientTransform="translate(0 -172)"><stop offset="0" stop-color="#a51d2d"/><stop offset="1" stop-color="#e01b24"/></linearGradient><linearGradient id="b" gradientUnits="userSpaceOnUse" x1="45.999" y1="246.969" x2="64" y2="276" gradientTransform="translate(0 -172)"><stop offset="0" stop-color="#613583"/><stop offset="1" stop-color="#a347ba"/></linearGradient><linearGradient id="s" gradientUnits="userSpaceOnUse" x1="45.999" y1="225.608" x2="28" y2="256.785" gradientTransform="translate(0 -172)"><stop offset="0" stop-color="#1a5fb4"/><stop offset="1" stop-color="#3584e4"/></linearGradient><linearGradient id="d" gradientUnits="userSpaceOnUse" x1="45.999" y1="225.608" x2="28" y2="256.785" gradientTransform="translate(0 -172)"><stop offset="0" stop-color="#1a5fb4"/><stop offset="1" stop-color="#3584e4"/></linearGradient><linearGradient id="e" gradientUnits="userSpaceOnUse" x1="82.001" y1="246.393" x2="100" y2="216" gradientTransform="translate(0 -172)"><stop offset="0" stop-color="#c64600"/><stop offset="1" stop-color="#ff7800"/></linearGradient><linearGradient id="f" gradientUnits="userSpaceOnUse" x1="63.999" y1="215.215" x2="28" y2="215.216" gradientTransform="translate(0 -172)"><stop offset="0" stop-color="#26a269"/><stop offset="1" stop-color="#33d17a"/></linearGradient><linearGradient id="g" gradientUnits="userSpaceOnUse" x1="64.499" y1="257.074" x2="100" y2="258" gradientTransform="translate(0 -172)"><stop offset="0" stop-color="#a51d2d"/><stop offset="1" stop-color="#e01b24"/></linearGradient><linearGradient id="r" gradientUnits="userSpaceOnUse" x1="82" y1="225.608" x2="64" y2="196" gradientTransform="translate(0 -172)"><stop offset="0" stop-color="#e5a50a"/><stop offset="1" stop-color="#f6d32d"/></linearGradient><linearGradient id="m" gradientUnits="userSpaceOnUse" x1="300" y1="235" x2="428" y2="235" gradientTransform="matrix(0 .37 -.98462 0 295.385 -30.36)"><stop offset="0" stop-color="#f9f06b"/><stop offset="1" stop-color="#f5c211"/></linearGradient><clipPath id="n"><path d="M0 0h128v128H0z"/></clipPath><clipPath id="h"><path d="M0 0h128v128H0z"/></clipPath><clipPath id="l"><path d="M0 0h128v128H0z"/></clipPath><clipPath id="a"><path d="M0 0h128v128H0z"/></clipPath><g id="k" clip-path="url(#h)" filter="url(#i)"><use xlink:href="#j"/></g><g id="o" clip-path="url(#l)"><path d="M128 80.64V128H0V80.64zm0 0" fill="url(#m)"/><path d="M13.309 80.64L60.664 128H81.88l-47.36-47.36zm42.421 0L103.094 128h21.215L76.945 80.64zm42.43 0L128 110.48V89.27l-8.629-8.63zM0 88.548v21.215L18.238 128h21.215zm0 0"/></g><g id="j" clip-path="url(#a)"><path d="M82 53.61v20.78L64 84.786 46 74.391V53.609l18-10.394zm0 0" fill="#3d3846"/><path d="M28 43.215v41.57" fill="none" stroke-width="36" stroke="#33d17a"/><path d="M64 105.57L28 84.785" fill="none" stroke-width="36" stroke="#3584e4"/><path d="M64 105.57l36-20.785" fill="none" stroke-width="36" stroke="#a347ba"/><path d="M100 43.215v41.57" fill="none" stroke-width="36" stroke="#e01b24"/><path d="M100 43.215L64 22.43" fill="none" stroke-width="36" stroke="#ff7800"/><path d="M28 43.215L64 22.43" fill="none" stroke-width="36" stroke="#f6d32d"/><path d="M64 123.57c9.941 0 18-8.058 18-18a17.998 17.998 0 00-7.742-14.765L65 85.363l-1-.578a427.828 427.828 0 01-8.535-4.96A18.003 18.003 0 0146 64v41.57c0 9.942 8.059 18 18 18zm-17.934-19.453c.024-.281.067-.562.102-.84-.04.278-.074.559-.102.84zm.938-4.41c.027-.078.047-.156.074-.23h.004a3.987 3.987 0 00-.078.23zm0 0" fill="url(#b)"/><path d="M64 4.43c-9.941 0-18 8.062-18 18a18.01 18.01 0 007.742 14.77L63 42.636l1 .578a427.828 427.828 0 018.535 4.96A18.003 18.003 0 0182 64V22.43c0-9.938-8.059-18-18-18zm17.934 19.453c-.024.281-.067.562-.102.844.04-.282.074-.563.102-.844zm-.938 4.41c-.027.078-.047.156-.074.23l-.004.004c.027-.078.055-.156.078-.23zm0 0" fill="url(#c)"/><path d="M12.41 93.785c4.973 8.61 15.98 11.559 24.59 6.59a18.005 18.005 0 008.914-14.09L46 75.547v-1.152c-.031-3.188-.02-6.868.027-9.872A17.993 17.993 0 0155 48.414L28 64l-4.07 2.352L19 69.195c-8.61 4.973-11.559 15.98-6.59 24.59zm7.88-25.258c.257-.12.519-.222.78-.332a19.51 19.51 0 00-.78.332zm4.288-1.394c.082-.012.156-.035.235-.051l.003.004-.234.047zm0 0" fill="url(#d)"/><path d="M115.59 34.215c-4.973-8.61-15.98-11.559-24.59-6.586a17.993 17.993 0 00-8.914 14.09L82 52.457v1.152c.031 3.184.02 6.864-.027 9.871A18.002 18.002 0 0173 79.59l9-5.2L100 64l4.07-2.348 4.93-2.847c8.61-4.973 11.559-15.98 6.59-24.59zm-7.88 25.258c-.257.12-.519.222-.78.332.261-.106.523-.215.78-.332zm-4.288 1.394c-.082.016-.156.04-.234.051h-.004c.078-.016.156-.035.234-.05zm0 0" fill="url(#e)"/><path d="M12.41 34.215c-4.969 8.61-2.02 19.617 6.59 24.59a18.004 18.004 0 0016.66.675L45 54.184l1-.575a393.198 393.198 0 018.563-4.91A18 18 0 0173 48.41L46 32.824l-4.07-2.351L37 27.629c-8.61-4.973-19.617-2.024-24.59 6.586zm25.813-5.805zm3.351 3.02c.055.058.114.113.164.175v.004c-.054-.062-.11-.12-.16-.18zm0 0" fill="url(#f)"/><path d="M115.59 93.785c4.969-8.61 2.02-19.617-6.59-24.59a18.004 18.004 0 00-16.66-.675L83 73.816l-1 .579a428.356 428.356 0 01-8.563 4.91A18.008 18.008 0 0155 79.59l9 5.195L82 95.18l4.07 2.347 4.93 2.848c8.61 4.969 19.617 2.02 24.59-6.59zM89.777 99.59c-.234-.16-.457-.336-.68-.508.223.176.45.344.68.508zm-3.351-3.02c-.055-.058-.114-.113-.164-.175v-.004c.054.062.11.12.16.183zm0 0" fill="url(#g)"/><path d="M46 53.61v20.78l18 10.395 18-10.394V53.609L64 43.215zm0 0" fill="#241f31"/></g><g id="w" clip-path="url(#n)"><use xlink:href="#o" mask="url(#p)"/></g><mask id="x"><use xlink:href="#k"/></mask><mask id="p"><g filter="url(#i)"><path fill-opacity=".8" d="M0 0h128v128H0z"/></g></mask><filter id="i" filterUnits="objectBoundingBox" x="0%" y="0%" width="100%" height="100%"><feColorMatrix in="SourceGraphic" values="0 0 0 0 1 0 0 0 0 1 0 0 0 0 1 0 0 0 1 0"/></filter></defs><path d="M82 53.61v20.78L64 84.786 46 74.391V53.609l18-10.394zm0 0" fill="#3d3846"/><path d="M28 43.215v41.57" fill="none" stroke-width="36" stroke="#33d17a"/><path d="M64 105.57L28 84.785" fill="none" stroke-width="36" stroke="#3584e4"/><path d="M64 105.57l36-20.785" fill="none" stroke-width="36" stroke="#a347ba"/><path d="M100 43.215v41.57" fill="none" stroke-width="36" stroke="#e01b24"/><path d="M100 43.215L64 22.43" fill="none" stroke-width="36" stroke="#ff7800"/><path d="M28 43.215L64 22.43" fill="none" stroke-width="36" stroke="#f6d32d"/><path d="M64 123.57c9.941 0 18-8.058 18-18a17.998 17.998 0 00-7.742-14.765L65 85.363l-1-.578a427.828 427.828 0 01-8.535-4.96A18.003 18.003 0 0146 64v41.57c0 9.942 8.059 18 18 18zm-17.934-19.453c.024-.281.067-.562.102-.84-.04.278-.074.559-.102.84zm.938-4.41c.027-.078.047-.156.074-.23h.004a3.987 3.987 0 00-.078.23zm0 0" fill="url(#q)"/><path d="M64 4.43c-9.941 0-18 8.062-18 18a18.01 18.01 0 007.742 14.77L63 42.636l1 .578a427.828 427.828 0 018.535 4.96A18.003 18.003 0 0182 64V22.43c0-9.938-8.059-18-18-18zm17.934 19.453c-.024.281-.067.562-.102.844.04-.282.074-.563.102-.844zm-.938 4.41c-.027.078-.047.156-.074.23l-.004.004c.027-.078.055-.156.078-.23zm0 0" fill="url(#r)"/><path d="M12.41 93.785c4.973 8.61 15.98 11.559 24.59 6.59a18.005 18.005 0 008.914-14.09L46 75.547v-1.152c-.031-3.188-.02-6.868.027-9.872A17.993 17.993 0 0155 48.414L28 64l-4.07 2.352L19 69.195c-8.61 4.973-11.559 15.98-6.59 24.59zm7.88-25.258c.257-.12.519-.222.78-.332a19.51 19.51 0 00-.78.332zm4.288-1.394c.082-.012.156-.035.235-.051l.003.004-.234.047zm0 0" fill="url(#s)"/><path d="M115.59 34.215c-4.973-8.61-15.98-11.559-24.59-6.586a17.993 17.993 0 00-8.914 14.09L82 52.457v1.152c.031 3.184.02 6.864-.027 9.871A18.002 18.002 0 0173 79.59l9-5.2L100 64l4.07-2.348 4.93-2.847c8.61-4.973 11.559-15.98 6.59-24.59zm-7.88 25.258c-.257.12-.519.222-.78.332.261-.106.523-.215.78-.332zm-4.288 1.394c-.082.016-.156.04-.234.051h-.004c.078-.016.156-.035.234-.05zm0 0" fill="url(#t)"/><path d="M12.41 34.215c-4.969 8.61-2.02 19.617 6.59 24.59a18.004 18.004 0 0016.66.675L45 54.184l1-.575a393.198 393.198 0 018.563-4.91A18 18 0 0173 48.41L46 32.824l-4.07-2.351L37 27.629c-8.61-4.973-19.617-2.024-24.59 6.586zm25.813-5.805zm3.351 3.02c.055.058.114.113.164.175v.004c-.054-.062-.11-.12-.16-.18zm0 0" fill="url(#u)"/><path d="M115.59 93.785c4.969-8.61 2.02-19.617-6.59-24.59a18.004 18.004 0 00-16.66-.675L83 73.816l-1 .579a428.356 428.356 0 01-8.563 4.91A18.008 18.008 0 0155 79.59l9 5.195L82 95.18l4.07 2.347 4.93 2.848c8.61 4.969 19.617 2.02 24.59-6.59zM89.777 99.59c-.234-.16-.457-.336-.68-.508.223.176.45.344.68.508zm-3.351-3.02c-.055-.058-.114-.113-.164-.175v-.004c.054.062.11.12.16.183zm0 0" fill="url(#v)"/><path d="M46 53.61v20.78l18 10.395 18-10.394V53.609L64 43.215zm0 0" fill="#241f31"/><use xlink:href="#w" mask="url(#x)"/></svg>