<svg height="16" width="16" xmlns="http://www.w3.org/2000/svg"><g style="display:inline"><path d="M442 788v14h14v-2h-12v-1.635a5.18 5.18 0 0 1 .393-.66c.817-1.164 2.146-2.146 4.683-2.656 2.674-.538 4.213-1.484 5.045-2.68.832-1.196.91-2.559.893-3.797a.5.5 0 1 0-1 .016c.017 1.182-.07 2.285-.715 3.21-.645.929-1.893 1.762-4.42 2.27-2.353.474-3.884 1.391-4.879 2.52V788Z" style="fill:#241f31" transform="translate(-441 -787)"/><path d="M442.504 801.514c.568-2.704 1.258-5.367 6.496-6.514 5.218-.955 5.086-3.648 6-6v12.558z" style="fill:#241f31;fill-opacity:.34999999" transform="translate(-441 -787)"/></g></svg>