<svg height="16" width="16" xmlns="http://www.w3.org/2000/svg"><path style="fill:#241f31;fill-opacity:1" d="M8 1C5.797 1 4 2.797 4 5c0 2.203 1.797 4 4 4 2.203 0 4-1.797 4-4 0-2.203-1.797-4-4-4zm0 1.066A2.926 2.926 0 0 1 10.934 5 2.926 2.926 0 0 1 8 7.934 2.926 2.926 0 0 1 5.066 5 2.926 2.926 0 0 1 8 2.066zM4 8c-2.203 0-4 1.797-4 4 0 2.203 1.797 4 4 4 2.203 0 4-1.797 4-4 0-2.203-1.797-4-4-4zm4 4a3.999 3.999 0 0 0 3.998 3.998 3.999 3.999 0 0 0 4-3.998 3.999 3.999 0 0 0-4-3.998A3.999 3.999 0 0 0 8 12zM4 9.066A2.926 2.926 0 0 1 6.934 12 2.926 2.926 0 0 1 4 14.934 2.926 2.926 0 0 1 1.066 12 2.926 2.926 0 0 1 4 9.066z"/><circle cx="4" cy="12" r="3.467" style="fill:#241f31;fill-opacity:.34999999"/></svg>